<?xml version="1.0" encoding="UTF-8" standalone="no"?>
<!DOCTYPE svg PUBLIC "-//W3C//DTD SVG 1.1//EN" "http://www.w3.org/Graphics/SVG/1.1/DTD/svg11.dtd">
<svg xmlns="http://www.w3.org/2000/svg" version="1.1" viewBox="0.00 0.00 587.00 200.00">
<path fill="#8c3636" d="
  M 306.86 12.51
  Q 306.86 12.54 306.88 12.57
  A 0.10 0.09 73.5 0 0 306.99 12.64
  L 310.27 11.76
  A 0.86 0.84 -75.2 0 0 310.71 11.50
  L 312.29 9.86
  A 0.70 0.70 0.0 0 1 313.50 10.38
  L 313.34 13.44
  A 1.21 1.21 0.0 0 0 314.33 14.69
  Q 316.86 15.14 318.49 16.59
  A 0.75 0.74 59.9 0 1 318.15 17.88
  Q 316.37 18.23 315.56 20.28
  A 0.34 0.34 0.0 0 0 316.08 20.68
  Q 318.22 19.15 320.21 18.85
  A 0.96 0.95 13.2 0 1 321.14 20.34
  Q 320.34 21.47 319.66 24.41
  A 4.36 4.25 66.1 0 1 319.25 25.51
  Q 316.66 30.21 315.88 30.89
  C 310.27 35.81 305.48 41.44 299.57 47.16
  A 1.48 1.48 0.0 0 1 297.62 47.25
  L 293.53 44.04
  A 4.83 4.71 69.0 0 0 291.47 43.09
  L 288.15 42.46
  A 1.37 1.37 0.0 0 0 286.93 44.77
  L 314.09 71.93
  A 0.65 0.64 -44.7 0 0 315.00 71.93
  L 341.12 45.81
  A 0.85 0.85 0.0 0 0 341.11 44.60
  L 326.69 30.76
  A 1.35 1.35 0.0 0 1 328.18 28.56
  Q 329.44 29.14 331.03 31.01
  Q 336.34 37.26 342.41 43.01
  A 0.56 0.56 0.0 0 0 343.35 42.64
  L 343.78 35.41
  A 1.39 1.36 67.0 0 1 344.11 34.57
  C 344.75 33.83 345.75 33.62 346.43 32.61
  C 347.67 30.78 349.89 28.48 352.17 28.35
  A 0.58 0.58 0.0 0 1 352.75 29.11
  L 350.51 35.66
  A 0.36 0.36 0.0 0 0 350.73 36.12
  L 355.52 37.75
  A 0.45 0.44 18.6 0 0 356.09 37.47
  L 357.85 32.31
  A 0.94 0.94 0.0 0 1 359.51 32.09
  Q 363.32 37.74 359.87 43.54
  A 3.36 3.36 0.0 0 1 357.46 45.15
  C 352.53 45.84 350.94 45.87 347.64 47.20
  A 0.55 0.54 -33.6 0 0 347.46 48.09
  L 375.92 76.55
  A 1.11 1.10 44.4 0 1 375.94 78.10
  L 375.72 78.33
  A 0.75 0.74 -45.5 0 1 374.66 78.35
  L 345.70 49.39
  A 0.42 0.42 0.0 0 0 345.10 49.40
  L 319.41 76.14
  A 0.86 0.86 0.0 0 0 319.42 77.35
  Q 327.42 85.26 329.20 87.16
  Q 330.21 88.24 332.02 88.72
  C 334.21 89.30 335.37 91.05 336.89 92.57
  Q 352.55 108.28 360.42 116.21
  A 1.22 1.21 46.4 0 1 360.38 117.96
  Q 357.64 120.45 356.36 122.31
  A 0.41 0.41 0.0 0 0 356.99 122.82
  L 361.20 118.44
  A 1.58 1.58 0.0 0 1 363.24 118.24
  L 367.24 121.00
  A 1.07 1.06 39.9 0 1 367.39 122.63
  L 359.18 130.83
  A 0.76 0.76 0.0 0 1 358.01 130.71
  L 353.86 124.31
  A 1.81 1.65 -87.4 0 0 353.66 124.07
  Q 340.02 110.74 327.43 97.71
  Q 325.95 96.18 325.05 93.80
  A 5.48 5.44 12.3 0 0 323.77 91.82
  L 281.30 49.34
  A 0.66 0.66 0.0 0 0 280.35 49.35
  Q 247.15 84.32 207.74 125.44
  C 205.87 127.39 204.27 129.45 201.84 130.55
  C 200.40 131.19 198.11 131.30 196.71 130.26
  C 192.11 126.85 196.00 121.75 199.07 118.81
  Q 245.87 74.07 269.90 50.90
  Q 271.73 49.13 276.13 45.24
  A 0.72 0.71 47.1 0 0 276.16 44.19
  L 259.60 27.63
  A 1.02 1.01 -45.2 0 1 259.60 26.20
  L 263.29 22.51
  A 1.03 1.03 0.0 0 1 264.75 22.51
  L 281.32 39.08
  A 0.59 0.59 0.0 0 0 282.28 38.88
  C 283.84 34.98 280.57 30.24 278.05 27.57
  A 1.36 1.35 -43.9 0 1 278.09 25.66
  L 291.07 13.12
  A 0.35 0.35 0.0 0 0 291.14 13.05
  C 295.26 7.89 299.12 7.72 303.90 5.94
  A 0.58 0.53 -77.5 0 0 304.14 5.77
  L 304.90 4.88
  A 1.31 1.31 0.0 0 1 307.17 5.43
  Q 307.66 7.49 307.46 9.31
  A 0.53 0.53 0.0 0 0 308.17 9.86
  L 309.26 9.46
  A 0.46 0.46 0.0 0 1 309.75 10.20
  Q 308.87 11.18 306.99 12.30
  A 0.25 0.17 -24.1 0 0 306.86 12.51
  Z
  M 310.82 17.33
  L 310.96 14.65
  A 0.63 0.62 88.8 0 0 310.29 14.00
  Q 306.80 14.28 304.74 16.39
  A 0.59 0.58 -28.6 0 1 303.75 16.10
  Q 302.93 12.26 305.32 9.25
  A 0.51 0.51 0.0 0 0 304.64 8.50
  L 303.82 9.03
  A 2.27 2.23 -61.7 0 1 302.69 9.38
  C 298.00 9.54 294.62 10.28 292.07 14.02
  A 1.06 1.06 0.0 0 0 292.19 15.36
  L 310.13 33.29
  A 0.78 0.78 0.0 0 0 311.20 33.32
  Q 315.76 29.22 317.72 23.51
  A 0.58 0.58 0.0 0 0 317.04 22.75
  Q 315.89 23.01 314.55 24.24
  A 0.62 0.62 0.0 0 1 313.52 23.88
  Q 312.92 19.92 314.84 17.85
  A 0.78 0.78 0.0 0 0 314.01 16.59
  L 311.20 17.61
  A 0.28 0.28 0.0 0 1 310.82 17.33
  Z
  M 284.0886 23.2694
  A 1.07 1.07 0.0 0 0 282.5754 23.2641
  L 281.4685 24.3633
  A 1.07 1.07 0.0 0 0 281.4632 25.8765
  L 299.4314 43.9706
  A 1.07 1.07 0.0 0 0 300.9446 43.9759
  L 302.0515 42.8767
  A 1.07 1.07 0.0 0 0 302.0568 41.3635
  L 284.0886 23.2694
  Z
  M 347.4390 35.6716
  A 2.43 0.52 -71.8 0 0 346.1860 37.8176
  A 2.43 0.52 -71.8 0 0 345.9210 40.2884
  A 2.43 0.52 -71.8 0 0 347.1740 38.1424
  A 2.43 0.52 -71.8 0 0 347.4390 35.6716
  Z
  M 350.79 39.94
  Q 350.59 40.51 350.12 41.27
  A 0.42 0.42 0.0 0 0 350.67 41.87
  Q 351.42 41.47 351.82 40.28
  Q 352.22 39.09 351.85 38.32
  A 0.42 0.42 0.0 0 0 351.05 38.47
  Q 350.98 39.36 350.79 39.94
  Z
  M 246.0506 83.0021
  A 0.60 0.60 0.0 0 0 246.0343 82.1538
  L 246.0199 82.1399
  A 0.60 0.60 0.0 0 0 245.1715 82.1562
  L 204.8294 124.0779
  A 0.60 0.60 0.0 0 0 204.8457 124.9262
  L 204.8601 124.9401
  A 0.60 0.60 0.0 0 0 205.7085 124.9238
  L 246.0506 83.0021
  Z
  M 333.6908 91.5909
  A 0.72 0.72 0.0 0 0 332.6726 91.5891
  L 332.6443 91.6173
  A 0.72 0.72 0.0 0 0 332.6425 92.6356
  L 357.4892 117.5691
  A 0.72 0.72 0.0 0 0 358.5074 117.5709
  L 358.5357 117.5427
  A 0.72 0.72 0.0 0 0 358.5375 116.5244
  L 333.6908 91.5909
  Z
  M 200.38 126.64
  A 1.52 1.52 0.0 0 0 198.86 125.12
  A 1.52 1.52 0.0 0 0 197.34 126.64
  A 1.52 1.52 0.0 0 0 198.86 128.16
  A 1.52 1.52 0.0 0 0 200.38 126.64
  Z"
/>
<path fill="#8c3636" d="
  M 276.28 7.11
  A 0.37 0.37 0.0 0 1 276.21 7.81
  Q 268.25 9.53 263.51 15.50
  A 1.39 1.38 -47.7 0 0 263.59 17.32
  Q 264.18 17.96 264.48 18.67
  A 0.97 0.97 0.0 0 1 264.27 19.73
  L 257.34 26.66
  A 0.97 0.96 -57.7 0 1 256.34 26.89
  L 253.84 26.04
  A 1.13 1.13 0.0 0 0 252.67 26.31
  L 250.03 28.95
  A 1.30 1.30 0.0 0 1 248.19 28.95
  L 241.97 22.73
  A 0.47 0.46 45.4 0 1 241.97 22.08
  C 249.80 14.19 264.32 1.95 276.28 7.11
  Z"
/>
<rect fill="#8c3636" x="-4.54" y="-6.54" transform="translate(241.49,30.04) rotate(-45.0)" width="9.08" height="13.08" rx="2.04"/>
<path fill="#8c3636" d="
  M 137.83 68.05
  A 0.36 0.36 0.0 0 1 137.69 67.35
  C 138.82 66.87 139.34 66.51 139.38 65.25
  Q 139.49 62.04 139.41 58.23
  A 3.33 3.32 85.1 0 0 135.59 55.01
  L 135.09 55.08
  A 3.29 3.28 -4.2 0 0 132.23 58.39
  L 132.34 65.56
  A 1.42 1.24 41.0 0 0 132.39 65.92
  Q 132.67 66.96 134.81 67.30
  A 0.38 0.38 0.0 0 1 134.75 68.05
  L 127.57 68.05
  A 0.44 0.44 0.0 0 1 127.48 67.18
  Q 129.01 66.85 129.35 65.94
  A 0.69 0.58 -39.8 0 0 129.39 65.72
  L 129.39 47.83
  A 1.04 1.01 -69.1 0 0 129.07 47.08
  L 127.82 45.87
  A 0.42 0.42 0.0 0 1 128.08 45.14
  Q 129.90 45.00 131.80 43.73
  A 0.55 0.54 -15.4 0 1 132.65 44.21
  L 132.12 54.52
  A 0.39 0.39 0.0 0 0 132.75 54.85
  C 135.51 52.77 139.86 52.11 141.70 55.34
  C 142.74 57.16 142.09 63.11 142.18 65.35
  A 1.43 1.42 21.8 0 0 142.57 66.25
  Q 143.35 67.06 144.69 67.36
  A 0.35 0.35 0.0 0 1 144.61 68.05
  L 137.83 68.05
  Z"
/>
<path fill="#8c3636" d="
  M 230.76 55.32
  L 232.62 54.24
  A 1.13 1.11 76.2 0 0 233.18 53.30
  C 233.29 48.46 235.82 44.25 240.99 43.69
  Q 242.40 43.54 243.13 44.06
  A 1.31 1.28 61.7 0 1 242.45 46.43
  Q 241.20 46.44 239.57 45.73
  A 1.38 1.37 -40.4 0 0 238.62 45.66
  Q 236.72 46.18 236.40 47.72
  Q 236.11 49.13 235.77 53.46
  A 0.61 0.61 0.0 0 0 236.38 54.12
  L 239.43 54.12
  A 0.86 0.86 0.0 0 1 240.29 54.98
  L 240.29 55.31
  A 0.70 0.69 -90.0 0 1 239.60 56.01
  L 236.47 56.01
  A 0.51 0.51 0.0 0 0 235.96 56.52
  L 235.96 65.95
  A 0.76 0.75 9.9 0 0 236.46 66.66
  L 238.39 67.32
  A 0.36 0.36 0.0 0 1 238.28 68.02
  L 231.43 68.02
  A 0.45 0.45 0.0 0 1 231.29 67.14
  Q 232.63 66.72 233.05 65.85
  A 0.91 0.83 60.7 0 0 233.14 65.46
  L 233.14 56.57
  A 0.57 0.57 0.0 0 0 232.57 56.00
  L 230.94 56.00
  A 0.36 0.36 0.0 0 1 230.76 55.32
  Z"
/>
<path fill="#8c3636" d="
  M 71.87 68.11
  L 66.34 68.11
  A 1.55 1.54 -14.5 0 1 64.99 67.32
  Q 61.70 61.50 59.57 58.50
  Q 58.84 57.46 56.66 57.09
  A 0.59 0.59 0.0 0 0 55.97 57.67
  L 55.97 65.52
  A 0.94 0.93 9.7 0 0 56.60 66.40
  L 59.59 67.42
  A 0.15 0.14 -82.1 0 1 59.69 67.56
  L 59.69 67.88
  A 0.30 0.30 0.0 0 1 59.38 68.18
  Q 54.53 67.97 49.37 68.12
  Q 49.15 68.13 48.83 67.95
  Q 48.74 67.89 48.72 67.62
  A 0.34 0.33 85.3 0 1 49.01 67.27
  Q 50.70 67.03 51.93 66.37
  A 1.22 1.19 75.9 0 0 52.55 65.31
  L 52.55 47.45
  A 1.18 1.17 16.9 0 0 52.02 46.47
  Q 50.92 45.75 49.33 45.59
  A 0.54 0.54 0.0 0 1 48.84 45.02
  L 48.84 44.99
  A 0.53 0.53 0.0 0 1 49.43 44.49
  Q 53.01 44.92 59.01 44.57
  C 66.60 44.13 71.29 51.29 63.11 56.30
  A 1.02 1.02 0.0 0 0 62.79 57.74
  L 68.25 65.89
  A 0.94 0.93 -7.8 0 0 68.74 66.26
  L 72.09 67.41
  A 0.10 0.09 -81.7 0 1 72.15 67.50
  L 72.15 67.82
  A 0.29 0.28 90.0 0 1 71.87 68.11
  Z
  M 55.96 47.29
  L 55.94 54.63
  A 1.39 1.39 0.0 0 0 57.33 56.03
  L 59.66 56.03
  A 4.32 4.12 -89.9 0 0 63.79 51.72
  L 63.79 50.24
  A 4.32 4.12 -89.9 0 0 59.68 45.91
  L 57.35 45.91
  A 1.39 1.39 0.0 0 0 55.96 47.29
  Z"
/>
<path fill="#8c3636" d="
  M 193.89 67.86
  A 0.29 0.28 -89.9 0 1 193.61 68.15
  L 188.08 68.14
  A 1.55 1.54 -14.4 0 1 186.73 67.35
  Q 183.44 61.52 181.32 58.52
  Q 180.59 57.48 178.41 57.10
  A 0.59 0.59 0.0 0 0 177.72 57.68
  L 177.71 65.54
  A 0.94 0.93 9.8 0 0 178.34 66.42
  L 181.33 67.44
  A 0.15 0.14 -82.0 0 1 181.43 67.58
  L 181.43 67.90
  A 0.30 0.30 0.0 0 1 181.12 68.20
  Q 176.26 67.99 171.10 68.13
  Q 170.88 68.14 170.56 67.96
  Q 170.47 67.90 170.45 67.63
  A 0.34 0.33 85.4 0 1 170.74 67.28
  Q 172.43 67.04 173.67 66.38
  A 1.22 1.19 76.0 0 0 174.29 65.32
  L 174.31 47.46
  A 1.18 1.17 16.9 0 0 173.78 46.48
  Q 172.68 45.76 171.09 45.59
  A 0.54 0.54 0.0 0 1 170.60 45.02
  L 170.60 44.99
  A 0.53 0.53 0.0 0 1 171.19 44.49
  Q 174.77 44.93 180.77 44.58
  C 188.36 44.15 193.05 51.32 184.86 56.32
  A 1.02 1.02 0.0 0 0 184.54 57.76
  L 189.99 65.92
  A 0.94 0.93 -7.7 0 0 190.48 66.29
  L 193.83 67.45
  A 0.10 0.09 -81.7 0 1 193.89 67.54
  L 193.89 67.86
  Z
  M 177.71 47.14
  L 177.69 54.82
  A 1.26 1.26 0.0 0 0 178.95 56.09
  L 181.44 56.09
  A 4.22 3.91 -89.9 0 0 185.36 51.88
  L 185.36 50.12
  A 4.22 3.91 -89.9 0 0 181.46 45.89
  L 178.97 45.89
  A 1.26 1.26 0.0 0 0 177.71 47.14
  Z"
/>
<path fill="#8c3636" d="
  M 120.34 53.85
  L 124.45 53.85
  A 1.06 1.05 -14.2 0 1 125.38 54.40
  L 125.55 54.73
  A 0.54 0.54 0.0 0 1 125.05 55.48
  L 120.31 55.49
  A 0.43 0.43 0.0 0 0 119.88 55.92
  L 119.88 64.77
  A 1.81 1.80 -0.0 0 0 121.69 66.57
  L 124.55 66.57
  A 0.53 0.53 0.0 0 1 124.83 67.55
  C 121.89 69.33 117.14 69.11 116.92 64.63
  Q 116.92 64.58 116.77 56.99
  Q 116.75 55.51 115.37 55.08
  A 0.46 0.45 40.4 0 1 115.30 54.24
  Q 117.46 53.15 119.02 50.86
  A 0.59 0.59 0.0 0 1 120.10 51.22
  L 119.99 53.48
  A 0.35 0.35 0.0 0 0 120.34 53.85
  Z"
/>
<path fill="#8c3636" d="
  M 88.10 60.88
  A 7.91 7.91 0.0 0 1 80.19 68.79
  A 7.91 7.91 0.0 0 1 72.28 60.88
  A 7.91 7.91 0.0 0 1 80.19 52.97
  A 7.91 7.91 0.0 0 1 88.10 60.88
  Z
  M 80.1863 54.0900
  A 6.78 4.56 -90.2 0 0 75.6500 60.8859
  A 6.78 4.56 -90.2 0 0 80.2337 67.6500
  A 6.78 4.56 -90.2 0 0 84.7700 60.8541
  A 6.78 4.56 -90.2 0 0 80.1863 54.0900
  Z"
/>
<path fill="#8c3636" d="
  M 159.48 65.18
  Q 158.61 66.94 156.43 67.94
  C 152.64 69.70 148.42 68.06 146.90 64.14
  C 144.90 59.00 147.88 52.74 154.13 53.05
  A 4.78 4.76 -21.0 0 1 157.27 54.44
  L 159.43 56.61
  A 1.41 1.40 67.5 0 1 158.44 59.01
  L 150.56 59.01
  A 0.88 0.87 1.4 0 0 149.68 59.84
  Q 149.53 62.84 150.08 64.03
  C 151.78 67.73 156.30 66.89 159.04 64.81
  A 0.30 0.29 84.8 0 1 159.48 65.18
  Z
  M 150.48 58.15
  L 156.29 57.80
  A 0.42 0.42 0.0 0 0 156.68 57.36
  L 156.68 57.24
  A 3.28 3.23 86.6 0 0 153.26 54.16
  L 153.06 54.17
  A 3.28 3.23 86.6 0 0 150.03 57.64
  L 150.03 57.75
  A 0.42 0.42 0.0 0 0 150.48 58.15
  Z"
/>
<path fill="#8c3636" d="
  M 209.65 60.88
  A 7.91 7.91 0.0 0 1 201.74 68.79
  A 7.91 7.91 0.0 0 1 193.83 60.88
  A 7.91 7.91 0.0 0 1 201.74 52.97
  A 7.91 7.91 0.0 0 1 209.65 60.88
  Z
  M 201.6800 54.0800
  A 6.75 4.65 -90.0 0 0 197.0300 60.8300
  A 6.75 4.65 -90.0 0 0 201.6800 67.5800
  A 6.75 4.65 -90.0 0 0 206.3300 60.8300
  A 6.75 4.65 -90.0 0 0 201.6800 54.0800
  Z"
/>
<path fill="#8c3636" d="
  M 227.91 60.86
  A 7.89 7.89 0.0 0 1 220.02 68.75
  A 7.89 7.89 0.0 0 1 212.13 60.86
  A 7.89 7.89 0.0 0 1 220.02 52.97
  A 7.89 7.89 0.0 0 1 227.91 60.86
  Z
  M 220.0244 54.0401
  A 6.79 4.66 -90.3 0 0 215.4001 60.8544
  A 6.79 4.66 -90.3 0 0 220.0956 67.6199
  A 6.79 4.66 -90.3 0 0 224.7199 60.8056
  A 6.79 4.66 -90.3 0 0 220.0244 54.0401
  Z"
/>
<path fill="#8c3636" d="
  M 95.57 55.05
  A 0.57 0.57 0.0 0 0 95.37 55.87
  L 97.19 58.59
  A 0.60 0.59 -36.3 0 0 98.06 58.72
  Q 99.29 57.72 100.28 55.60
  A 0.58 0.57 -65.0 0 0 100.01 54.83
  Q 98.73 54.22 99.31 53.58
  A 0.11 0.10 -65.1 0 1 99.41 53.54
  L 104.82 53.74
  A 0.37 0.37 0.0 0 1 104.93 54.46
  L 102.96 55.18
  A 0.81 0.80 -78.9 0 0 102.62 55.41
  L 98.77 59.73
  A 0.76 0.75 -42.4 0 0 98.72 60.68
  L 102.62 66.03
  A 1.67 1.58 79.7 0 0 103.41 66.61
  L 105.36 67.28
  A 0.40 0.40 0.0 0 1 105.23 68.06
  L 97.94 68.06
  A 0.36 0.36 0.0 0 1 97.74 67.40
  L 98.87 66.65
  A 0.56 0.55 -34.5 0 0 99.02 65.87
  L 97.21 63.16
  A 0.63 0.63 0.0 0 0 96.28 63.03
  Q 95.22 63.92 94.09 66.03
  A 0.64 0.63 28.2 0 0 94.35 66.88
  Q 95.92 67.71 94.78 68.22
  A 0.58 0.55 32.6 0 1 94.57 68.26
  L 89.53 68.02
  A 0.39 0.39 0.0 0 1 89.42 67.27
  L 91.18 66.63
  A 0.75 0.74 -77.4 0 0 91.49 66.43
  L 95.63 62.12
  A 0.80 0.80 0.0 0 0 95.70 61.10
  L 91.77 55.71
  A 1.67 1.63 -8.1 0 0 90.95 55.11
  L 89.05 54.46
  A 0.41 0.41 0.0 0 1 89.18 53.66
  L 96.43 53.66
  A 0.32 0.32 0.0 0 1 96.66 54.20
  Q 96.20 54.71 95.57 55.05
  Z"
/>
<rect fill="#8c3636" x="-2.89" y="-3.17" transform="translate(342.11,71.35) rotate(-1.4)" width="5.78" height="6.34" rx="0.84"/>
<rect fill="#8c3636" x="-2.91" y="-3.14" transform="translate(348.87,71.38) rotate(0.1)" width="5.82" height="6.28" rx="0.80"/>
<rect fill="#8c3636" x="-2.88" y="-3.16" transform="translate(342.09,78.84) rotate(0.9)" width="5.76" height="6.32" rx="0.86"/>
<rect fill="#8c3636" x="-2.86" y="-3.17" transform="translate(348.88,78.81) rotate(1.6)" width="5.72" height="6.34" rx="0.91"/>
<path fill="#8c3636" d="
  M 390.29 92.44
  Q 388.82 93.91 388.10 94.50
  A 1.16 1.16 0.0 0 1 386.54 94.43
  L 376.21 84.10
  A 0.80 0.79 -20.2 0 0 375.70 83.87
  Q 374.05 83.77 373.57 82.44
  A 0.81 0.81 0.0 0 1 373.88 81.50
  Q 374.47 81.10 376.71 78.86
  Q 378.94 76.62 379.34 76.04
  A 0.81 0.81 0.0 0 1 380.28 75.73
  Q 381.61 76.21 381.71 77.86
  A 0.80 0.79 -69.8 0 0 381.94 78.37
  L 392.27 88.69
  A 1.16 1.16 0.0 0 1 392.35 90.26
  Q 391.75 90.97 390.29 92.44
  Z
  M 382.59 80.84
  L 378.65 84.78
  A 0.59 0.59 0.0 0 0 378.65 85.62
  L 385.97 92.94
  A 1.10 1.09 -44.8 0 0 387.52 92.94
  L 390.83 89.63
  A 0.98 0.98 0.0 0 0 390.83 88.24
  L 383.44 80.84
  A 0.61 0.60 44.7 0 0 382.59 80.84
  Z"
/>
<rect fill="#8c3636" x="-5.94" y="-6.57" transform="translate(274.33,83.47) rotate(0.1)" width="11.88" height="13.14" rx="1.40"/>
<rect fill="#8c3636" x="-6.00" y="-6.57" transform="translate(288.31,83.49) rotate(0.2)" width="12.00" height="13.14" rx="1.43"/>
<ellipse fill="#8c3636" cx="0.00" cy="0.00" transform="translate(385.90,86.25) rotate(-135.7)" rx="4.62" ry="0.34"/>
<ellipse fill="#8c3636" cx="0.00" cy="0.00" transform="translate(384.26,88.33) rotate(-135.5)" rx="4.10" ry="0.34"/>
<rect fill="#8c3636" x="-5.96" y="-6.64" transform="translate(274.33,98.93) rotate(0.2)" width="11.92" height="13.28" rx="1.38"/>
<rect fill="#8c3636" x="-5.99" y="-6.65" transform="translate(288.31,98.93) rotate(0.1)" width="11.98" height="13.30" rx="1.32"/>
<path fill="#8c3636" d="
  M 286.45 120.80
  A 0.29 0.29 0.0 0 1 286.09 121.24
  Q 281.29 118.51 277.71 121.38
  A 1.35 1.35 0.0 0 1 276.60 121.66
  Q 276.10 121.56 275.51 121.12
  C 272.53 118.82 268.71 120.61 266.54 123.42
  A 0.49 0.49 0.0 0 1 265.69 123.29
  L 265.43 122.58
  A 1.67 1.65 4.0 0 0 264.63 121.67
  Q 261.27 119.97 257.77 122.36
  A 0.18 0.17 -36.5 0 1 257.53 122.33
  L 257.50 122.29
  A 0.26 0.25 -40.2 0 1 257.54 121.93
  Q 261.63 118.43 265.81 121.12
  A 0.86 0.85 -49.1 0 0 266.84 121.04
  Q 271.07 117.33 276.19 119.74
  A 1.28 1.27 42.4 0 0 277.38 119.69
  Q 282.64 116.62 286.45 120.80
  Z"
/>
<path fill="#8c3636" d="
  M 329.32 135.39
  Q 329.33 137.60 329.43 140.73
  A 2.99 2.99 0.0 0 0 331.27 143.40
  Q 332.48 143.91 335.02 143.90
  Q 340.00 143.89 343.72 143.75
  A 1.28 1.28 0.0 0 1 344.87 145.67
  L 342.35 150.04
  A 4.05 4.03 -75.5 0 1 338.95 152.05
  Q 330.79 152.21 323.27 152.09
  Q 321.69 152.07 320.45 150.07
  Q 319.42 148.42 313.28 137.64
  Q 312.52 136.32 312.51 135.48
  Q 312.51 134.63 313.26 133.29
  Q 319.29 122.46 320.30 120.80
  Q 321.52 118.79 323.10 118.75
  Q 330.62 118.56 338.78 118.63
  A 4.05 4.03 74.9 0 1 342.20 120.61
  L 344.77 124.96
  A 1.28 1.28 0.0 0 1 343.64 126.89
  Q 339.91 126.78 334.93 126.82
  Q 332.39 126.84 331.19 127.36
  A 2.99 2.99 0.0 0 0 329.38 130.05
  Q 329.31 133.18 329.32 135.39
  Z
  M 315.3105 136.1569
  A 0.64 0.64 0.0 0 0 314.4346 135.9288
  L 314.4001 135.9490
  A 0.64 0.64 0.0 0 0 314.1720 136.8249
  L 322.3495 150.7631
  A 0.64 0.64 0.0 0 0 323.2254 150.9912
  L 323.2599 150.9710
  A 0.64 0.64 0.0 0 0 323.4880 150.0951
  L 315.3105 136.1569
  Z"
/>
<path fill="#8c3636" d="
  M 249.35 135.68
  Q 249.35 136.53 248.61 137.87
  Q 242.62 148.70 241.61 150.36
  Q 240.40 152.37 238.82 152.41
  Q 231.31 152.62 223.17 152.57
  A 4.04 4.02 74.8 0 1 219.75 150.60
  L 217.18 146.27
  A 1.28 1.28 0.0 0 1 218.30 144.34
  Q 222.02 144.44 226.99 144.38
  Q 229.52 144.36 230.73 143.84
  A 2.99 2.98 78.9 0 0 232.53 141.15
  Q 232.59 138.03 232.57 135.82
  Q 232.56 133.61 232.45 130.49
  A 2.99 2.98 -79.8 0 0 230.60 127.83
  Q 229.40 127.32 226.86 127.34
  Q 221.89 127.36 218.18 127.51
  A 1.28 1.28 0.0 0 1 217.02 125.60
  L 219.53 121.23
  A 4.04 4.02 -75.6 0 1 222.92 119.21
  Q 231.06 119.03 238.57 119.13
  Q 240.14 119.15 241.39 121.14
  Q 242.42 122.79 248.58 133.53
  Q 249.34 134.85 249.35 135.68
  Z
  M 239.4256 121.3329
  A 0.61 0.61 0.0 0 0 238.5923 121.1096
  L 238.5577 121.1296
  A 0.61 0.61 0.0 0 0 238.3344 121.9629
  L 246.4544 136.0271
  A 0.61 0.61 0.0 0 0 247.2877 136.2504
  L 247.3223 136.2304
  A 0.61 0.61 0.0 0 0 247.5456 135.3971
  L 239.4256 121.3329
  Z"
/>
<path fill="#8c3636" d="
  M 292.31 119.30
  Q 293.62 119.75 294.68 120.70
  A 2.74 2.72 -21.7 0 0 296.30 121.39
  L 302.16 121.84
  A 0.13 0.13 0.0 0 1 302.28 121.97
  L 302.28 121.98
  A 0.22 0.20 9.6 0 1 302.11 122.09
  L 295.61 122.43
  A 0.80 0.78 64.8 0 1 295.02 122.21
  L 292.19 119.49
  A 0.12 0.11 -13.3 0 1 292.31 119.30
  Z"
/>
<path fill="#8c3636" d="
  M 305.60 124.23
  A 0.23 0.23 0.0 0 1 306.06 124.26
  Q 306.20 126.88 307.82 126.89
  Q 309.93 126.91 314.83 126.84
  A 0.73 0.73 0.0 0 1 315.47 127.93
  L 311.81 134.27
  A 2.45 2.45 0.0 0 0 311.81 136.71
  L 315.41 142.94
  A 0.73 0.73 0.0 0 1 314.74 144.03
  L 312.41 143.91
  A 0.69 0.69 0.0 0 0 311.71 144.41
  Q 308.90 153.97 303.75 160.01
  Q 300.72 163.56 293.63 169.61
  Q 285.99 176.12 287.95 186.38
  A 1.27 1.26 86.1 0 1 286.64 187.89
  L 286.22 187.87
  A 1.67 1.66 81.7 0 1 284.72 186.75
  Q 283.67 183.77 282.37 179.36
  Q 281.98 178.03 282.79 173.93
  A 3.22 3.20 36.6 0 0 282.47 171.80
  Q 282.00 170.92 280.48 169.22
  A 2.21 2.11 46.0 0 1 280.46 166.29
  Q 280.96 165.77 281.40 164.91
  A 1.02 1.01 -46.6 0 0 281.38 163.93
  L 279.19 160.14
  A 0.48 0.48 0.0 0 1 279.60 159.42
  Q 283.22 159.34 287.66 155.65
  Q 293.58 150.73 299.99 147.27
  C 304.60 144.78 307.25 141.13 306.94 136.01
  C 306.72 132.47 306.93 131.05 305.81 128.22
  Q 305.13 126.50 305.60 124.23
  Z
  M 311.4783 141.2640
  A 0.71 0.36 -112.5 0 0 311.4174 142.0578
  A 0.71 0.36 -112.5 0 0 312.0217 142.5760
  A 0.71 0.36 -112.5 0 0 312.0826 141.7822
  A 0.71 0.36 -112.5 0 0 311.4783 141.2640
  Z"
/>
<path fill="#8c3636" d="
  M 266.56 131.47
  Q 266.74 132.69 266.10 135.98
  Q 265.71 137.99 267.78 139.94
  C 270.38 142.39 274.72 141.80 275.82 138.26
  C 276.98 134.56 275.62 131.96 275.82 128.74
  A 0.21 0.21 0.0 0 1 276.24 128.71
  Q 277.34 135.50 277.40 135.85
  Q 278.23 140.23 282.71 139.15
  C 290.49 137.28 285.58 129.66 287.42 124.82
  A 0.32 0.32 0.0 0 1 288.02 124.82
  Q 289.42 128.74 295.39 128.76
  A 0.39 0.39 0.0 0 1 295.68 129.41
  Q 292.14 133.33 296.26 137.67
  A 0.68 0.68 0.0 0 1 295.82 138.82
  Q 283.84 139.58 275.98 149.30
  A 1.06 1.05 -58.9 0 1 274.76 149.61
  Q 268.63 147.03 261.80 146.98
  A 0.51 0.50 35.2 0 1 261.63 146.00
  L 263.73 145.24
  A 0.50 0.49 35.0 0 0 263.56 144.28
  L 246.90 144.28
  A 0.64 0.64 0.0 0 1 246.34 143.32
  Q 248.93 138.84 249.61 137.62
  Q 250.78 135.52 249.42 133.37
  Q 247.51 130.33 246.13 127.77
  A 0.40 0.39 -14.0 0 1 246.48 127.19
  L 255.32 127.19
  A 0.44 0.44 0.0 0 1 255.76 127.62
  C 255.81 132.20 258.10 136.77 263.55 136.31
  A 1.40 1.39 -12.4 0 0 264.75 134.44
  Q 263.67 131.51 263.83 131.13
  A 1.43 1.42 52.1 0 1 266.56 131.47
  Z
  M 266.9397 142.1739
  A 0.64 0.64 0.0 0 0 266.2964 141.5373
  L 249.9766 141.6227
  A 0.64 0.64 0.0 0 0 249.3400 142.2661
  L 249.3403 142.3261
  A 0.64 0.64 0.0 0 0 249.9836 142.9627
  L 266.3034 142.8773
  A 0.64 0.64 0.0 0 0 266.9400 142.2339
  L 266.9397 142.1739
  Z"
/>
<path fill="#8c3636" d="
  M 274.13 161.17
  A 0.21 0.19 16.6 0 1 274.27 161.41
  L 274.27 161.42
  A 0.22 0.21 -78.1 0 1 274.03 161.58
  Q 267.71 160.45 263.75 160.15
  C 260.85 159.93 257.13 160.73 256.61 164.09
  Q 256.40 165.46 256.58 169.79
  A 0.50 0.50 0.0 0 1 256.09 170.31
  L 256.08 170.31
  A 0.45 0.45 0.0 0 1 255.66 169.88
  L 255.11 157.54
  A 0.27 0.26 -73.3 0 1 255.53 157.31
  L 257.00 158.39
  A 3.71 3.62 -20.5 0 0 258.50 159.05
  Q 259.21 159.19 264.24 159.29
  Q 268.66 159.37 274.13 161.17
  Z"
/>
<path fill="#8c3636" d="
  M 438.12 172.79
  C 435.84 182.32 422.52 182.74 419.94 172.91
  C 418.24 166.45 420.45 158.64 428.03 157.67
  Q 434.36 156.86 437.75 162.41
  A 1.58 1.57 -38.9 0 1 437.54 164.32
  L 437.51 164.35
  A 1.05 1.05 0.0 0 1 435.91 164.25
  Q 434.66 162.59 433.91 161.65
  C 432.22 159.54 428.45 159.63 426.35 160.54
  C 422.54 162.20 421.80 167.30 422.45 171.27
  Q 423.33 176.66 428.20 177.58
  C 431.24 178.15 434.02 176.63 435.07 173.55
  Q 435.49 172.29 436.09 171.68
  A 1.20 1.20 0.0 0 1 438.12 172.79
  Z"
/>
<path fill="#8c3636" d="
  M 324.13 169.48
  L 324.80 170.12
  A 2.48 2.46 -71.8 0 1 325.53 171.58
  L 326.45 178.90
  A 0.75 0.74 -3.7 0 1 325.71 179.74
  L 324.72 179.74
  A 1.32 1.32 0.0 0 1 323.40 178.45
  C 323.32 175.64 323.94 170.52 320.25 170.40
  Q 317.11 170.29 312.70 170.37
  A 0.48 0.48 0.0 0 0 312.23 170.86
  L 312.33 178.50
  A 1.25 1.25 0.0 0 1 310.85 179.74
  L 310.54 179.69
  A 1.28 1.28 0.0 0 1 309.49 178.43
  L 309.49 158.58
  A 0.54 0.54 0.0 0 1 310.04 158.04
  C 315.92 158.10 322.14 157.34 324.69 159.75
  C 327.12 162.04 326.74 166.24 324.16 168.44
  A 0.70 0.70 0.0 0 0 324.13 169.48
  Z
  M 312.18 160.88
  L 312.26 167.68
  A 0.45 0.45 0.0 0 0 312.71 168.12
  L 319.78 168.05
  A 3.86 3.69 -0.6 0 0 323.60 164.32
  L 323.60 164.00
  A 3.86 3.69 -0.6 0 0 319.70 160.35
  L 312.63 160.43
  A 0.45 0.45 0.0 0 0 312.18 160.88
  Z"
/>
<path fill="#8c3636" d="
  M 366.75 166.61
  L 366.75 178.75
  A 1.01 1.01 0.0 0 1 365.74 179.76
  L 365.48 179.76
  A 1.04 1.04 0.0 0 1 364.44 178.72
  L 364.44 166.83
  A 0.73 0.73 0.0 0 0 363.95 166.14
  L 362.19 165.54
  A 0.68 0.68 0.0 0 1 362.18 164.25
  Q 362.62 164.10 363.66 164.05
  A 0.92 0.92 0.0 0 0 364.55 163.10
  C 364.49 161.32 364.02 158.92 365.85 158.29
  Q 367.70 157.66 369.03 158.08
  A 0.84 0.84 0.0 0 1 368.90 159.71
  Q 366.18 160.13 366.64 163.44
  A 0.74 0.74 0.0 0 0 367.37 164.08
  L 368.58 164.08
  A 0.89 0.88 -90.0 0 1 369.46 164.97
  L 369.46 165.32
  A 0.68 0.68 0.0 0 1 368.78 166.00
  L 367.35 166.00
  A 0.61 0.60 -90.0 0 0 366.75 166.61
  Z"
/>
<ellipse fill="#8c3636" cx="0.00" cy="0.00" transform="translate(373.21,159.47) rotate(-116.3)" rx="1.59" ry="1.38"/>
<path fill="#8c3636" d="
  M 343.4243 173.8879
  A 6.48 6.48 0.0 0 1 336.5608 179.9602
  L 335.4029 179.8894
  A 6.48 6.48 0.0 0 1 329.3306 173.0259
  L 329.5357 169.6721
  A 6.48 6.48 0.0 0 1 336.3992 163.5998
  L 337.5571 163.6706
  A 6.48 6.48 0.0 0 1 343.6294 170.5341
  L 343.4243 173.8879
  Z
  M 336.7065 165.4760
  A 6.34 4.74 -87.5 0 0 331.6945 171.6032
  A 6.34 4.74 -87.5 0 0 336.1535 178.1440
  A 6.34 4.74 -87.5 0 0 341.1655 172.0168
  A 6.34 4.74 -87.5 0 0 336.7065 165.4760
  Z"
/>
<path fill="#8c3636" d="
  M 353.5406 163.3931
  A 8.43 7.34 -86.8 0 1 360.3986 172.2197
  A 8.43 7.34 -86.8 0 1 352.5994 180.2269
  A 8.43 7.34 -86.8 0 1 345.7414 171.4003
  A 8.43 7.34 -86.8 0 1 353.5406 163.3931
  Z
  M 353.1666 165.5128
  A 6.29 4.72 -88.3 0 0 348.2621 171.6600
  A 6.29 4.72 -88.3 0 0 352.7934 178.0872
  A 6.29 4.72 -88.3 0 0 357.6979 171.9400
  A 6.29 4.72 -88.3 0 0 353.1666 165.5128
  Z"
/>
<path fill="#8c3636" d="
  M 448.4553 163.4040
  A 8.43 7.31 -86.7 0 1 455.2679 172.2408
  A 8.43 7.31 -86.7 0 1 447.4847 180.2360
  A 8.43 7.31 -86.7 0 1 440.6721 171.3992
  A 8.43 7.31 -86.7 0 1 448.4553 163.4040
  Z
  M 448.1495 165.4938
  A 6.29 4.73 -88.0 0 0 443.2029 171.6149
  A 6.29 4.73 -88.0 0 0 447.7105 178.0662
  A 6.29 4.73 -88.0 0 0 452.6571 171.9451
  A 6.29 4.73 -88.0 0 0 448.1495 165.4938
  Z"
/>
<path fill="#8c3636" d="
  M 381.94 165.17
  Q 383.01 164.11 385.22 163.79
  Q 390.93 162.96 391.17 168.50
  Q 391.36 172.87 391.23 178.83
  A 1.02 1.01 6.2 0 1 390.02 179.80
  L 389.80 179.75
  A 1.26 1.25 6.7 0 1 388.83 178.53
  L 388.79 168.91
  A 3.15 3.15 0.0 0 0 385.07 165.82
  L 384.79 165.86
  A 4.26 4.26 0.0 0 0 381.14 170.08
  L 381.14 178.74
  A 1.00 0.99 0.0 0 1 380.14 179.73
  L 379.78 179.73
  A 1.15 1.14 0.0 0 1 378.63 178.59
  L 378.63 164.62
  A 0.73 0.72 -86.5 0 1 379.44 163.90
  Q 380.41 164.02 381.09 165.08
  A 0.55 0.55 0.0 0 0 381.94 165.17
  Z"
/>
<path fill="#8c3636" d="
  M 404.87 178.09
  Q 401.07 180.75 397.45 178.86
  C 393.82 176.97 394.05 172.60 394.51 169.36
  C 395.17 164.76 399.61 162.45 403.89 164.66
  C 404.97 165.21 405.62 164.73 406.48 164.10
  A 0.85 0.85 0.0 0 1 407.84 164.84
  Q 407.56 168.75 407.73 177.99
  Q 407.90 187.22 398.95 185.81
  Q 395.99 185.35 394.91 182.51
  A 0.87 0.86 -88.0 0 1 396.08 181.41
  C 397.38 182.02 398.00 183.57 399.44 183.95
  C 403.11 184.93 406.12 181.97 405.46 178.33
  A 0.38 0.38 0.0 0 0 404.87 178.09
  Z
  M 401.4155 165.7394
  A 6.01 4.54 -86.8 0 0 396.5471 171.4866
  A 6.01 4.54 -86.8 0 0 400.7445 177.7406
  A 6.01 4.54 -86.8 0 0 405.6129 171.9934
  A 6.01 4.54 -86.8 0 0 401.4155 165.7394
  Z"
/>
<path fill="#8c3636" d="
  M 458.41 178.75
  L 458.26 164.81
  A 0.94 0.94 0.0 0 1 459.70 164.01
  Q 460.27 164.37 460.58 164.90
  A 0.79 0.79 0.0 0 0 461.74 165.11
  Q 465.28 162.34 468.36 164.65
  Q 468.77 164.95 469.43 165.26
  A 0.88 0.87 -50.6 0 0 470.32 165.17
  Q 474.22 162.33 478.09 164.84
  A 2.25 2.24 -73.8 0 1 479.12 166.73
  L 479.12 178.78
  A 0.88 0.88 0.0 0 1 478.16 179.66
  L 477.89 179.63
  A 1.22 1.22 0.0 0 1 476.72 178.39
  L 476.83 168.64
  A 2.79 2.78 85.2 0 0 473.55 165.86
  L 473.25 165.91
  A 3.68 3.68 0.0 0 0 470.16 169.54
  L 470.16 178.98
  A 0.96 0.96 0.0 0 1 468.80 179.85
  L 468.44 179.68
  A 1.70 1.70 0.0 0 1 467.46 178.14
  L 467.46 168.30
  A 2.42 2.42 0.0 0 0 464.53 165.94
  L 463.96 166.06
  A 3.83 3.82 -5.6 0 0 460.94 169.73
  L 460.77 178.45
  A 1.40 1.39 83.5 0 1 459.72 179.78
  L 459.67 179.78
  A 1.06 1.06 0.0 0 1 458.41 178.75
  Z"
/>
<path fill="#8c3636" d="
  M 486.02 178.67
  A 0.34 0.34 0.0 0 0 485.51 178.96
  L 485.51 185.27
  A 0.82 0.81 -86.3 0 1 484.59 186.08
  L 484.11 186.02
  A 1.08 1.08 0.0 0 1 483.17 184.95
  L 483.17 164.55
  A 0.67 0.66 -67.9 0 1 484.30 164.07
  C 486.25 165.97 487.39 164.00 489.19 163.79
  C 495.28 163.09 496.81 167.66 496.58 172.82
  C 496.30 178.85 491.49 181.93 486.02 178.67
  Z
  M 494.0981 169.8761
  A 3.91 3.91 0.0 0 0 490.3058 165.8518
  L 489.6861 165.8334
  A 3.91 3.91 0.0 0 0 485.6618 169.6257
  L 485.5419 173.6639
  A 3.91 3.91 0.0 0 0 489.3342 177.6882
  L 489.9539 177.7066
  A 3.91 3.91 0.0 0 0 493.9782 173.9143
  L 494.0981 169.8761
  Z"
/>
<path fill="#8c3636" d="
  M 513.39 179.99
  Q 511.12 180.22 510.32 178.63
  A 1.00 1.00 0.0 0 0 508.79 178.32
  C 506.09 180.57 501.73 180.89 499.84 177.71
  C 498.47 175.42 499.60 171.55 502.68 171.00
  Q 507.65 170.12 508.81 169.87
  A 1.32 1.31 89.7 0 0 509.82 168.84
  C 510.47 165.45 505.83 165.35 503.82 166.06
  A 1.32 1.29 -85.4 0 0 503.10 166.69
  Q 502.46 167.92 501.61 168.56
  A 0.95 0.95 0.0 0 1 500.12 167.55
  C 501.37 162.98 506.76 163.08 510.33 164.55
  A 2.87 2.86 11.2 0 1 512.11 167.20
  L 512.11 176.29
  A 1.84 1.82 19.9 0 0 512.78 177.70
  Q 514.17 178.81 514.17 179.11
  A 0.88 0.87 -3.6 0 1 513.39 179.99
  Z
  M 509.13 171.93
  C 506.14 172.37 500.52 172.65 501.98 176.38
  A 2.71 2.45 -13.6 0 0 504.76 177.89
  Q 510.23 177.22 509.86 172.51
  A 0.65 0.64 -6.4 0 0 509.13 171.93
  Z"
/>
<path fill="#8c3636" d="
  M 519.07 165.05
  A 0.55 0.55 0.0 0 0 519.91 165.14
  Q 520.97 164.10 523.16 163.80
  Q 528.80 163.02 529.00 168.49
  Q 529.16 172.81 528.99 178.69
  A 1.00 1.00 0.0 0 1 527.78 179.64
  L 527.57 179.59
  A 1.25 1.24 7.1 0 1 526.62 178.38
  L 526.65 168.88
  A 3.11 3.11 0.0 0 0 522.99 165.80
  L 522.72 165.84
  A 4.21 4.21 0.0 0 0 519.08 169.98
  L 519.02 178.53
  A 0.99 0.98 0.4 0 1 518.03 179.50
  L 517.67 179.50
  A 1.14 1.13 0.4 0 1 516.55 178.37
  L 516.64 164.57
  A 0.72 0.71 -86.1 0 1 517.45 163.87
  Q 518.41 163.99 519.07 165.05
  Z"
/>
<path fill="#8c3636" d="
  M 538.92 176.35
  L 542.92 164.62
  A 0.98 0.97 -80.3 0 1 543.84 163.96
  L 544.93 163.96
  A 0.58 0.57 9.4 0 1 545.48 164.72
  Q 542.67 172.82 539.05 182.27
  Q 537.54 186.21 534.16 186.03
  A 1.25 1.24 -88.3 0 1 532.99 184.78
  L 532.99 184.31
  A 0.73 0.72 -85.0 0 1 533.84 183.59
  Q 536.92 184.15 537.20 179.99
  A 3.06 2.97 37.5 0 0 537.02 178.76
  L 532.06 165.07
  A 0.90 0.90 0.0 0 1 532.91 163.86
  L 533.25 163.86
  A 1.44 1.44 0.0 0 1 534.60 164.80
  L 538.78 176.36
  A 0.08 0.07 -47.0 0 0 538.92 176.35
  Z"
/>
<rect fill="#8c3636" x="372.01" y="163.93" width="2.34" height="15.72" rx="0.95"/>
</svg>
